# xmcd CD database file generated by Grip 3.2.0
# 
# Track frame offsets:
#       150
#       17215
#       34918
#       38283
#       52075
#       62768
#       75395
#       92245
#       108743
#       141725
#       163985
#       189678
#       202358
#       217068
#       241748
#       271615
#       296958
#       322550
# 
# Disc length: 4544 seconds
# 
# Revision: 2
# Processed by: cddbd v1.5.1PL0 Copyright (c) Steve Scherf et al.
# Submitted via: Grip 3.2.0
# 
DISCID=1311be12
DTITLE=Compilations - American Folk Blues Festival '82
DYEAR=1982
DGENRE=Blues
TTITLE0=James "Son" Thomas - Beefsteak Blues
TTITLE1=James "Son" Thomas - Catfish Blues
TTITLE2=John Cephas - Announcement by John Cephas
TTITLE3=Archie Edwards - How Long Blues
TTITLE4=Archie Edwards - That Won't Do
TTITLE5=Archie Edwards - Take Me Back Baby
TTITLE6="Bowling Green John" Cephas, "Harmonica Phil" Wiggins - Big Boss Man
TTITLE7="Bowling Green John" Cephas, "Harmonica Phil" Wiggins - Burn Your Brid
TTITLE7=ges
TTITLE8=Chicago's Young Blues Generation - Detroit Michigan
TTITLE9=Carey Bell, Billy Branch, Phil Wiggins - Tribute To Big Walter
TTITLE10="Bowling Green John" Cephas, "Harmonica Phil" Wiggins - Running And Hi
TTITLE10=ding
TTITLE11="Bowling Green John" Cephas, "Harmonica Phil" Wiggins - Good Morning L
TTITLE11=ittle Schoolgirl
TTITLE12=James "Son" Thomas - Stormy Monday Blues
TTITLE13=Carey Bell and Chicago's Young Blues Generation - Goin' On Main Street
TTITLE14=Carey Bell, Billy Branch, Phil Wiggins - Blues Harp Blues By Three
TTITLE15=Margie Evans, Carey Bell, Lurrie Bell, Elisha Murray - That Dirty Blac
TTITLE15=k Rat
TTITLE16=Margie Evans, Carey Bell, Lurrie Bell, Elisha Murray - Sometimes I'll 
TTITLE16=Be Gone
TTITLE17="Bowling Green John" Cephas, "Harmonica Phil" Wiggins - Bye Bye Baby
EXTD=
EXTT0=James Son Thomas
EXTT1=James Son Thomas
EXTT2=
EXTT3=Archie Edwards
EXTT4=Archie Edwards
EXTT5=Archie Edwards
EXTT6=John Cephas\nPhil Wiggins
EXTT7=John Cephas \nPhil Wiggins
EXTT8=Lurrie Bell and Billy Branch\nChicago's Young Blues Generation
EXTT9=Carey Bell\nBilly Branch\nPhil Wiggins
EXTT10=John Cephas\nPhil Wiggins
EXTT11=John Cephas\nPhil Wiggins
EXTT12=James Son Thomas\nJ.W. Willimas\nMose Rutues, Jr.
EXTT13=Carey Bell\nChicago's Young Blues Generation
EXTT14=Carey Bell\nBilly Branch\nPhil Wiggins
EXTT15=Margie Evans\nChicago's Young Blues Generation
EXTT16=Margie Evans\nChicago's Young Blues Generation
EXTT17=Margie Evans\nJohn Cephas\nPhil Wiggins
PLAYORDER=
